<?xml version="1.0" standalone="no"?>
<!DOCTYPE svg PUBLIC "-//W3C//DTD SVG 20010904//EN"
 "http://www.w3.org/TR/2001/REC-SVG-20010904/DTD/svg10.dtd">
<svg version="1.0" xmlns="http://www.w3.org/2000/svg"
 width="2000.000000pt" height="2000.000000pt" viewBox="0 0 2000.000000 2000.000000"
 preserveAspectRatio="xMidYMid meet">
<metadata>
Created by potrace 1.14, written by Peter Selinger 2001-2017
</metadata>
<g transform="translate(0.000000,2000.000000) scale(0.100000,-0.100000)"
fill="#000000" stroke="none">
<path d="M12457 15738 c-74 -79 -149 -159 -167 -178 -29 -31 -229 -243 -350
-371 -25 -26 -101 -107 -170 -181 -154 -165 -433 -443 -690 -689 -246 -236
-285 -273 -520 -499 -106 -102 -214 -205 -239 -230 -26 -25 -146 -140 -267
-256 -120 -116 -253 -244 -294 -283 -210 -201 -429 -412 -480 -461 -283 -273
-436 -418 -443 -420 -7 -1 -80 58 -147 120 -15 14 -60 54 -100 90 -41 36 -81
72 -90 80 -9 8 -52 47 -95 85 -44 39 -96 84 -115 101 -19 17 -123 109 -230
204 -107 95 -229 203 -270 240 -41 37 -100 89 -131 116 -78 69 -210 187 -223
199 -6 6 -67 60 -136 120 -122 107 -174 154 -230 205 -15 14 -43 38 -61 54
-220 193 -403 364 -476 445 -48 54 -90 100 -93 100 -3 1 -17 -9 -30 -21 -14
-13 -48 -43 -75 -67 -28 -24 -73 -65 -100 -90 -28 -25 -91 -82 -140 -126 -50
-44 -95 -84 -101 -90 -6 -5 -50 -46 -99 -90 -49 -44 -100 -91 -114 -104 -14
-12 -55 -49 -91 -81 -36 -32 -79 -71 -96 -86 -78 -72 -136 -125 -214 -194 -46
-41 -96 -86 -111 -100 -15 -14 -60 -54 -100 -90 -40 -36 -77 -70 -83 -75 -6
-6 -58 -53 -116 -105 -58 -52 -125 -113 -149 -135 -54 -50 -48 -44 -156 -140
-49 -44 -92 -82 -95 -85 -3 -3 -50 -46 -105 -95 -55 -50 -102 -92 -105 -95 -3
-3 -50 -45 -105 -95 -131 -118 -185 -167 -205 -185 -9 -8 -54 -49 -100 -90
-47 -41 -107 -96 -135 -122 -27 -25 -59 -55 -71 -65 -17 -14 -112 -99 -188
-168 -167 -150 -261 -235 -315 -285 -9 -8 -57 -51 -106 -95 -49 -44 -96 -87
-105 -95 -9 -8 -39 -35 -67 -60 -75 -68 -220 -198 -288 -260 -33 -30 -103 -93
-155 -140 -52 -47 -122 -110 -155 -140 -114 -102 -140 -126 -250 -224 -60 -54
-117 -106 -125 -115 -9 -9 -51 -47 -95 -86 -44 -38 -92 -81 -106 -95 -15 -14
-53 -48 -85 -76 -33 -29 -71 -62 -85 -75 -30 -28 -191 -174 -264 -239 -57 -52
-141 -128 -164 -150 -9 -8 -50 -44 -91 -80 -41 -36 -86 -76 -100 -90 -14 -14
-47 -44 -73 -68 -26 -23 -47 -44 -47 -47 0 -2 44 -53 97 -112 54 -59 111 -123
128 -142 16 -19 35 -39 40 -45 6 -6 37 -40 69 -76 32 -36 75 -83 95 -105 20
-22 118 -130 216 -240 99 -109 187 -207 195 -215 21 -23 162 -179 183 -204 10
-12 35 -39 55 -62 20 -22 75 -82 122 -134 190 -210 172 -194 196 -173 32 27
180 161 243 219 31 28 74 66 96 85 22 19 47 41 55 50 8 8 42 39 75 69 33 29
98 87 144 129 114 104 118 107 202 182 41 37 86 77 100 90 14 13 48 44 75 68
27 24 72 64 99 90 28 25 93 84 145 131 52 47 113 101 135 121 70 64 91 83 156
141 35 31 76 67 90 80 44 40 200 182 223 203 12 11 55 49 95 85 95 85 107 96
173 155 30 28 90 82 134 122 43 39 88 80 100 90 12 10 57 50 100 90 43 39 90
81 104 93 14 12 65 58 114 103 165 151 378 343 436 393 25 21 54 48 65 59 18
17 81 75 250 226 22 20 69 62 105 95 112 101 242 218 305 274 33 29 62 56 65
59 3 3 48 44 100 91 52 47 118 106 145 132 28 26 56 48 62 48 11 0 60 -41 293
-250 41 -37 199 -177 350 -311 333 -295 336 -298 370 -329 15 -14 58 -52 96
-86 176 -155 349 -309 354 -314 3 -3 43 -39 90 -80 129 -114 242 -214 305
-271 17 -15 39 -36 51 -46 12 -10 52 -45 90 -78 38 -33 115 -106 173 -162 57
-57 108 -100 114 -96 5 3 7 1 4 -4 -4 -6 161 -181 366 -388 204 -207 488 -494
630 -638 l258 -261 67 66 c283 280 604 597 1127 1113 333 330 715 707 848 838
133 131 364 359 512 507 l271 268 129 -125 c72 -69 252 -244 400 -389 149
-144 322 -313 385 -374 63 -61 230 -223 370 -360 140 -136 289 -280 330 -320
113 -109 634 -616 1114 -1083 154 -150 305 -297 336 -327 49 -47 455 -442 715
-695 45 -44 205 -199 355 -345 150 -146 310 -301 355 -345 45 -44 194 -189
331 -322 137 -133 301 -293 365 -355 424 -413 591 -573 597 -576 4 -1 106 100
227 224 121 125 256 264 300 309 44 45 195 200 335 345 140 144 270 277 288
295 17 18 32 35 32 38 0 7 -52 58 -366 364 -132 127 -293 284 -359 348 -66 64
-225 219 -354 344 -244 236 -307 300 -304 308 1 5 164 180 318 342 50 52 128
135 175 185 47 50 124 131 171 181 47 49 100 105 117 124 40 43 269 286 344
365 l58 61 -63 59 c-34 32 -129 123 -212 201 -82 79 -166 157 -185 175 -19 18
-71 67 -116 109 -44 42 -149 141 -234 221 -84 80 -172 163 -195 185 -24 22
-76 71 -116 109 -41 38 -115 108 -165 155 -49 47 -166 158 -259 246 -93 88
-204 193 -246 233 -42 40 -87 81 -99 92 -13 11 -100 93 -194 183 -94 89 -207
196 -250 237 -44 41 -103 98 -132 125 -28 28 -109 104 -179 170 -71 66 -145
136 -165 155 -107 101 -348 329 -375 353 -16 16 -64 61 -105 100 -42 40 -147
140 -235 222 -88 83 -200 189 -250 236 -49 47 -127 120 -172 163 -45 43 -101
96 -125 118 -24 23 -110 105 -193 183 -82 78 -162 153 -176 166 -15 13 -93 88
-175 165 -82 78 -165 156 -184 174 -32 30 -216 203 -399 377 -42 39 -98 93
-126 119 -27 25 -115 108 -195 184 -80 76 -161 153 -181 171 -20 19 -101 95
-180 170 -79 75 -160 151 -179 169 -19 18 -104 98 -189 179 -85 80 -167 157
-181 171 -38 35 -319 302 -408 385 -41 39 -92 87 -113 108 -22 20 -44 37 -48
37 -5 0 -69 -64 -144 -142z"/>
</g>
</svg>
